<?xml version="1.0" encoding="utf-8"?>
<!-- Generator: Adobe Illustrator 25.4.1, SVG Export Plug-In . SVG Version: 6.00 Build 0)  -->
<svg version="1.1" xmlns="http://www.w3.org/2000/svg" xmlns:xlink="http://www.w3.org/1999/xlink" x="0px" y="0px"
	 viewBox="0 0 841.9 595.3" style="enable-background:new 0 0 841.9 595.3;" xml:space="preserve">
<style type="text/css">
	.st0{fill:#009881;}
	.st1{fill:#FFFFFF;}
	.st2{fill:#6BBEA1;}
</style>
<g id="LOGO">
	<rect x="286.6" y="157.1" class="st0" width="226.1" height="207.3"/>
	<g>
		<path class="st1" d="M359.6,227.2c0,0.8,0,1.5,0.1,2.1c0.1,0.6,0.3,1.2,0.6,1.7c0.3,0.5,0.6,0.9,1.1,1.1c0.5,0.3,1.1,0.4,1.8,0.4
			c0.7,0,1.3-0.1,1.8-0.4c0.5-0.3,0.8-0.6,1.1-1.1c0.3-0.5,0.5-1,0.6-1.7c0.1-0.6,0.1-1.4,0.1-2.1v-21.5h6.2v21.5
			c0,2-0.3,3.6-0.8,4.9c-0.5,1.3-1.3,2.3-2.2,3c-0.9,0.7-2,1.3-3.1,1.5c-1.2,0.3-2.4,0.4-3.7,0.4c-1.3,0-2.5-0.1-3.7-0.3
			c-1.2-0.2-2.2-0.7-3.1-1.4c-0.9-0.7-1.6-1.7-2.2-3c-0.5-1.3-0.8-3-0.8-5.1v-21.5h6.2V227.2z"/>
		<path class="st1" d="M376.9,205.7h6.2v25.8h11v5.1h-17.2V205.7z"/>
		<path class="st1" d="M397.1,205.7h6.2v30.9h-6.2V205.7z"/>
		<path class="st1" d="M418.7,205.7c1.6,0,2.9,0.3,4,0.8c1.1,0.5,1.9,1.2,2.6,2.1s1.1,1.9,1.4,3c0.3,1.1,0.4,2.2,0.4,3.4
			c0,1.6-0.2,3-0.7,4.2c-0.5,1.2-1.1,2.1-2,2.9c-0.8,0.7-1.9,1.3-3.1,1.7c-1.2,0.4-2.5,0.6-4,0.6h-3.3v12.3h-6.2v-30.9H418.7z
			 M416.8,219.6c1.2,0,2.2-0.4,3-1.1c0.8-0.7,1.1-1.9,1.1-3.5c0-1.6-0.3-2.7-1-3.5c-0.7-0.8-1.8-1.2-3.3-1.2h-2.6v9.4H416.8z"/>
		<path class="st1" d="M442.2,205.7l8.1,30.9h-6.4l-1.4-6.5h-8.2l-1.4,6.5h-6.4l8.1-30.9H442.2z M441.4,224.9l-3-13.9h-0.1l-3,13.9
			H441.4z"/>
		<path class="st1" d="M464.8,211.2c-0.5-1-1.5-1.5-2.9-1.5c-0.8,0-1.4,0.2-1.9,0.6c-0.5,0.4-0.9,1.1-1.2,2
			c-0.3,0.9-0.5,2.2-0.6,3.7c-0.1,1.5-0.2,3.4-0.2,5.6c0,2.3,0.1,4.2,0.2,5.7c0.2,1.4,0.4,2.6,0.7,3.3c0.3,0.8,0.7,1.3,1.2,1.6
			c0.5,0.3,1.1,0.4,1.7,0.4c0.5,0,1-0.1,1.5-0.3c0.5-0.2,0.9-0.6,1.2-1.1c0.3-0.6,0.6-1.4,0.8-2.4c0.2-1,0.3-2.4,0.3-4h6.2
			c0,1.7-0.1,3.3-0.4,4.8c-0.3,1.5-0.7,2.8-1.4,3.9c-0.7,1.1-1.7,2-3,2.6c-1.3,0.6-2.9,0.9-5,0.9c-2.3,0-4.2-0.4-5.5-1.1
			c-1.4-0.7-2.4-1.8-3.2-3.2c-0.7-1.4-1.2-3.1-1.4-5.1c-0.2-2-0.3-4.1-0.3-6.5c0-2.3,0.1-4.5,0.3-6.5c0.2-2,0.7-3.7,1.4-5.1
			c0.7-1.4,1.8-2.5,3.2-3.3c1.4-0.8,3.2-1.2,5.5-1.2c2.2,0,3.9,0.4,5.2,1.1c1.3,0.7,2.2,1.6,2.9,2.8c0.6,1.1,1,2.3,1.2,3.6
			c0.2,1.3,0.2,2.5,0.2,3.6h-6.2C465.6,213.9,465.3,212.3,464.8,211.2z"/>
		<path class="st1" d="M481.8,218L481.8,218l7.9-12.4h6.7l-8.3,13.2l9.3,17.6h-7l-6.3-12.7l-2.3,3.5v9.2h-6.2v-30.9h6.2V218z"/>
	</g>
	<g>
		<path class="st1" d="M355,245l4,10.3l4-10.3h1.6v11.8h-1.1v-10.2h0l-4,10.2h-1l-4-10.2h0v10.2h-1.1V245H355z"/>
		<path class="st1" d="M371.7,245l4.6,11.8h-1.2l-1.4-3.7h-5.3l-1.4,3.7h-1.2l4.7-11.8H371.7z M373.3,252.1l-2.3-6l-2.3,6H373.3z"/>
		<path class="st1" d="M382.7,245c0.5,0,0.9,0.1,1.4,0.2c0.4,0.1,0.8,0.3,1.1,0.6c0.3,0.2,0.6,0.6,0.8,1c0.2,0.4,0.3,0.8,0.3,1.4
			c0,0.7-0.2,1.4-0.6,1.9c-0.4,0.5-0.9,0.9-1.7,1.1v0c0.4,0.1,0.7,0.2,0.9,0.3s0.5,0.3,0.6,0.6c0.2,0.2,0.3,0.5,0.3,0.8
			c0.1,0.3,0.1,0.6,0.1,1c0,0.2,0,0.4,0,0.7c0,0.3,0,0.6,0.1,0.9c0,0.3,0.1,0.6,0.2,0.8c0.1,0.3,0.2,0.5,0.3,0.6h-1.2
			c-0.1-0.1-0.1-0.2-0.2-0.4c0-0.2-0.1-0.3-0.1-0.5c0-0.2,0-0.3,0-0.5c0-0.2,0-0.3,0-0.4c0-0.4-0.1-0.8-0.1-1.2
			c0-0.4-0.2-0.8-0.3-1.1c-0.2-0.3-0.4-0.6-0.7-0.8c-0.3-0.2-0.7-0.3-1.2-0.3h-4.2v5.2h-1.1V245H382.7z M382.6,250.5
			c0.3,0,0.7-0.1,1-0.2c0.3-0.1,0.6-0.3,0.8-0.5c0.2-0.2,0.4-0.4,0.5-0.7c0.1-0.3,0.2-0.6,0.2-1c0-0.7-0.2-1.3-0.6-1.7
			c-0.4-0.4-1-0.6-1.9-0.6h-4.2v4.6H382.6z"/>
		<path class="st1" d="M389.4,245v6.3l6.8-6.3h1.5l-5.2,4.9l5.5,6.9h-1.4l-4.9-6.1l-2.2,2.1v4h-1.1V245H389.4z"/>
		<path class="st1" d="M407,245v0.9h-7v4.3h6.5v0.9H400v4.6h7v0.9h-8.2V245H407z"/>
		<path class="st1" d="M416.6,245v0.9h-4.1v10.8h-1.1v-10.8h-4.1V245H416.6z"/>
		<path class="st1" d="M418.9,245v11.8h-1.1V245H418.9z"/>
		<path class="st1" d="M422.6,245l6.8,9.9h0V245h1.1v11.8h-1.2l-6.8-9.9h0v9.9h-1.1V245H422.6z"/>
		<path class="st1" d="M442.1,256.7l-0.1-2.1h0c-0.2,0.4-0.4,0.8-0.7,1.1c-0.3,0.3-0.6,0.5-1,0.7c-0.3,0.2-0.7,0.3-1.1,0.4
			c-0.4,0.1-0.8,0.1-1.2,0.1c-0.9,0-1.7-0.2-2.4-0.5c-0.7-0.3-1.3-0.8-1.7-1.3c-0.5-0.6-0.8-1.2-1-1.9c-0.2-0.7-0.3-1.5-0.3-2.3
			c0-0.8,0.1-1.6,0.3-2.3c0.2-0.7,0.6-1.4,1-1.9c0.5-0.6,1-1,1.7-1.3c0.7-0.3,1.5-0.5,2.4-0.5c0.6,0,1.2,0.1,1.7,0.2
			c0.5,0.2,1,0.4,1.5,0.7c0.4,0.3,0.8,0.7,1.1,1.2c0.3,0.5,0.5,1,0.6,1.7h-1.1c0-0.3-0.1-0.7-0.3-1c-0.2-0.3-0.4-0.7-0.8-0.9
			c-0.3-0.3-0.7-0.5-1.2-0.7c-0.4-0.2-1-0.3-1.5-0.3c-0.8,0-1.4,0.1-2,0.4c-0.6,0.3-1,0.7-1.4,1.2c-0.4,0.5-0.6,1-0.8,1.7
			c-0.2,0.6-0.3,1.2-0.3,1.9c0,0.6,0.1,1.3,0.3,1.9c0.2,0.6,0.4,1.2,0.8,1.7c0.4,0.5,0.8,0.9,1.4,1.2c0.6,0.3,1.2,0.4,2,0.4
			c0.6,0,1.2-0.1,1.7-0.3c0.5-0.2,0.9-0.5,1.3-0.9c0.3-0.4,0.6-0.8,0.8-1.4c0.2-0.5,0.3-1.1,0.2-1.7h-4v-0.9h5v6H442.1z"/>
		<path class="st1" d="M454.8,245c0.7,0,1.4,0.1,1.9,0.3c0.5,0.2,0.9,0.5,1.3,0.8c0.3,0.4,0.6,0.8,0.7,1.2c0.1,0.5,0.2,0.9,0.2,1.4
			c0,0.5-0.1,0.9-0.2,1.4c-0.1,0.5-0.4,0.9-0.7,1.2c-0.3,0.4-0.7,0.6-1.3,0.8c-0.5,0.2-1.1,0.3-1.9,0.3h-2.7v4.2h-2.6V245H454.8z
			 M454.1,250.5c0.3,0,0.6,0,0.9-0.1c0.3,0,0.5-0.1,0.7-0.3c0.2-0.1,0.4-0.3,0.5-0.5c0.1-0.2,0.2-0.5,0.2-0.9c0-0.4-0.1-0.7-0.2-0.9
			c-0.1-0.2-0.3-0.4-0.5-0.5c-0.2-0.1-0.4-0.2-0.7-0.3c-0.3,0-0.6-0.1-0.9-0.1h-2v3.5H454.1z"/>
		<path class="st1" d="M466.7,245c0.5,0,1,0.1,1.4,0.3c0.4,0.2,0.8,0.4,1.1,0.7c0.3,0.3,0.5,0.6,0.7,1c0.2,0.4,0.2,0.8,0.2,1.3
			c0,0.7-0.1,1.3-0.4,1.8s-0.8,0.9-1.4,1.2v0c0.3,0.1,0.6,0.2,0.8,0.4c0.2,0.2,0.4,0.4,0.5,0.6c0.1,0.2,0.2,0.5,0.3,0.8
			c0.1,0.3,0.1,0.6,0.1,0.9c0,0.2,0,0.4,0,0.7c0,0.3,0,0.5,0.1,0.8c0,0.3,0.1,0.5,0.1,0.7c0.1,0.2,0.1,0.4,0.3,0.6h-2.6
			c-0.1-0.4-0.2-0.8-0.3-1.3c0-0.5-0.1-1-0.1-1.5c-0.1-0.6-0.3-1.1-0.6-1.4c-0.3-0.3-0.7-0.4-1.4-0.4H463v4.6h-2.6V245H466.7z
			 M465.8,250.3c0.6,0,1-0.1,1.3-0.4c0.3-0.3,0.4-0.7,0.4-1.3c0-0.6-0.1-1-0.4-1.2c-0.3-0.3-0.7-0.4-1.3-0.4H463v3.3H465.8z"/>
		<path class="st1" d="M474.8,245v11.8h-2.6V245H474.8z"/>
		<path class="st1" d="M479.7,245l4.9,7.9h0V245h2.4v11.8h-2.6l-4.9-7.9h0v7.9h-2.4V245H479.7z"/>
		<path class="st1" d="M488.3,247.1V245h9.6v2.2h-3.5v9.6h-2.6v-9.6H488.3z"/>
		<path class="st1" d="M358.6,261.4c0.7,0,1.4,0.1,1.9,0.3c0.5,0.2,0.9,0.5,1.3,0.8c0.3,0.4,0.6,0.8,0.7,1.2
			c0.1,0.5,0.2,0.9,0.2,1.4c0,0.5-0.1,0.9-0.2,1.4c-0.1,0.5-0.4,0.9-0.7,1.2c-0.3,0.4-0.7,0.6-1.3,0.8c-0.5,0.2-1.1,0.3-1.9,0.3
			h-2.7v4.2h-2.6v-11.8H358.6z M357.9,266.9c0.3,0,0.6,0,0.9-0.1c0.3,0,0.5-0.1,0.7-0.3c0.2-0.1,0.4-0.3,0.5-0.5
			c0.1-0.2,0.2-0.5,0.2-0.9c0-0.4-0.1-0.7-0.2-0.9c-0.1-0.2-0.3-0.4-0.5-0.5c-0.2-0.1-0.4-0.2-0.7-0.3c-0.3,0-0.6-0.1-0.9-0.1h-2
			v3.5H357.9z"/>
		<path class="st1" d="M363.8,265.9c0.2-0.4,0.5-0.7,0.9-0.9c0.4-0.2,0.8-0.4,1.3-0.5c0.5-0.1,0.9-0.1,1.4-0.1c0.4,0,0.9,0,1.3,0.1
			c0.4,0.1,0.8,0.2,1.2,0.4c0.4,0.2,0.7,0.4,0.9,0.7c0.2,0.3,0.3,0.7,0.3,1.2v4.4c0,0.4,0,0.8,0.1,1.1c0,0.4,0.1,0.6,0.2,0.8l-2.4,0
			c0-0.1-0.1-0.3-0.1-0.4c0-0.1,0-0.3-0.1-0.4c-0.4,0.4-0.8,0.7-1.3,0.8c-0.5,0.2-1,0.2-1.5,0.2c-0.4,0-0.8,0-1.1-0.1
			c-0.3-0.1-0.7-0.3-0.9-0.5c-0.3-0.2-0.5-0.5-0.6-0.8c-0.1-0.3-0.2-0.7-0.2-1.1c0-0.5,0.1-0.9,0.3-1.2c0.2-0.3,0.4-0.6,0.7-0.7
			c0.3-0.2,0.6-0.3,0.9-0.4c0.3-0.1,0.7-0.2,1-0.2c0.3-0.1,0.7-0.1,1-0.1c0.3,0,0.6-0.1,0.9-0.1c0.3-0.1,0.5-0.2,0.6-0.3
			c0.2-0.1,0.2-0.3,0.2-0.6c0-0.3,0-0.5-0.1-0.6c-0.1-0.1-0.2-0.3-0.3-0.3c-0.1-0.1-0.3-0.1-0.5-0.2c-0.2,0-0.4,0-0.6,0
			c-0.5,0-0.8,0.1-1.1,0.3c-0.3,0.2-0.4,0.5-0.5,1h-2.3C363.5,266.7,363.6,266.3,363.8,265.9z M368.4,269.2c-0.1,0-0.3,0.1-0.5,0.1
			c-0.2,0-0.3,0.1-0.5,0.1c-0.2,0-0.4,0-0.6,0.1c-0.2,0-0.3,0.1-0.5,0.1c-0.2,0.1-0.3,0.1-0.4,0.2c-0.1,0.1-0.2,0.2-0.3,0.4
			c-0.1,0.1-0.1,0.3-0.1,0.5c0,0.2,0,0.4,0.1,0.5c0.1,0.1,0.2,0.3,0.3,0.3c0.1,0.1,0.3,0.1,0.5,0.2c0.2,0,0.4,0,0.5,0
			c0.5,0,0.8-0.1,1.1-0.2c0.3-0.2,0.4-0.3,0.6-0.6c0.1-0.2,0.2-0.4,0.2-0.7c0-0.2,0-0.4,0-0.5V269
			C368.7,269.1,368.6,269.2,368.4,269.2z"/>
		<path class="st1" d="M376.5,266.2c-0.4,0-0.7,0.1-0.9,0.3c-0.3,0.2-0.5,0.4-0.6,0.7c-0.2,0.3-0.3,0.6-0.3,0.9
			c-0.1,0.3-0.1,0.6-0.1,1c0,0.3,0,0.6,0.1,0.9c0.1,0.3,0.2,0.6,0.3,0.9c0.1,0.3,0.3,0.5,0.6,0.6c0.3,0.2,0.6,0.2,0.9,0.2
			c0.6,0,1-0.2,1.3-0.5c0.3-0.3,0.5-0.7,0.6-1.3h2.2c-0.2,1.1-0.6,2-1.3,2.6c-0.7,0.6-1.6,0.9-2.8,0.9c-0.6,0-1.2-0.1-1.7-0.3
			c-0.5-0.2-1-0.5-1.4-0.9c-0.4-0.4-0.7-0.8-0.9-1.4c-0.2-0.5-0.3-1.1-0.3-1.8c0-0.7,0.1-1.3,0.3-1.8c0.2-0.6,0.5-1.1,0.8-1.5
			c0.4-0.4,0.8-0.7,1.4-1c0.5-0.2,1.1-0.3,1.8-0.3c0.5,0,1,0.1,1.4,0.2c0.5,0.1,0.9,0.3,1.2,0.6c0.4,0.3,0.7,0.6,0.9,1
			c0.2,0.4,0.4,0.9,0.4,1.4h-2.3C378.1,266.7,377.5,266.2,376.5,266.2z"/>
		<path class="st1" d="M384,261.4v6.3l2.9-3.1h2.8l-3.2,3.1l3.6,5.4h-2.8l-2.3-3.8l-0.9,0.9v2.9h-2.3v-11.8H384z"/>
		<path class="st1" d="M390.7,265.9c0.2-0.4,0.5-0.7,0.9-0.9c0.4-0.2,0.8-0.4,1.3-0.5c0.5-0.1,0.9-0.1,1.4-0.1c0.4,0,0.9,0,1.3,0.1
			c0.4,0.1,0.8,0.2,1.2,0.4c0.4,0.2,0.7,0.4,0.9,0.7c0.2,0.3,0.3,0.7,0.3,1.2v4.4c0,0.4,0,0.8,0.1,1.1c0,0.4,0.1,0.6,0.2,0.8l-2.4,0
			c0-0.1-0.1-0.3-0.1-0.4c0-0.1,0-0.3-0.1-0.4c-0.4,0.4-0.8,0.7-1.3,0.8c-0.5,0.2-1,0.2-1.5,0.2c-0.4,0-0.8,0-1.1-0.1
			c-0.3-0.1-0.7-0.3-0.9-0.5c-0.3-0.2-0.5-0.5-0.6-0.8c-0.1-0.3-0.2-0.7-0.2-1.1c0-0.5,0.1-0.9,0.3-1.2c0.2-0.3,0.4-0.6,0.7-0.7
			c0.3-0.2,0.6-0.3,0.9-0.4c0.3-0.1,0.7-0.2,1-0.2c0.3-0.1,0.7-0.1,1-0.1c0.3,0,0.6-0.1,0.9-0.1c0.3-0.1,0.5-0.2,0.6-0.3
			c0.2-0.1,0.2-0.3,0.2-0.6c0-0.3,0-0.5-0.1-0.6c-0.1-0.1-0.2-0.3-0.3-0.3c-0.1-0.1-0.3-0.1-0.5-0.2c-0.2,0-0.4,0-0.6,0
			c-0.5,0-0.8,0.1-1.1,0.3c-0.3,0.2-0.4,0.5-0.5,1h-2.3C390.3,266.7,390.4,266.3,390.7,265.9z M395.3,269.2c-0.1,0-0.3,0.1-0.5,0.1
			c-0.2,0-0.3,0.1-0.5,0.1c-0.2,0-0.4,0-0.6,0.1c-0.2,0-0.3,0.1-0.5,0.1c-0.2,0.1-0.3,0.1-0.4,0.2c-0.1,0.1-0.2,0.2-0.3,0.4
			c-0.1,0.1-0.1,0.3-0.1,0.5c0,0.2,0,0.4,0.1,0.5c0.1,0.1,0.2,0.3,0.3,0.3c0.1,0.1,0.3,0.1,0.5,0.2c0.2,0,0.4,0,0.5,0
			c0.5,0,0.8-0.1,1.1-0.2c0.3-0.2,0.4-0.3,0.6-0.6c0.1-0.2,0.2-0.4,0.2-0.7c0-0.2,0-0.4,0-0.5V269
			C395.5,269.1,395.4,269.2,395.3,269.2z"/>
		<path class="st1" d="M407.3,273.8c-0.1,0.4-0.3,0.8-0.6,1.2c-0.3,0.4-0.8,0.7-1.3,1c-0.6,0.3-1.4,0.4-2.3,0.4
			c-0.4,0-0.8-0.1-1.3-0.2c-0.4-0.1-0.8-0.3-1.2-0.5c-0.4-0.2-0.7-0.5-0.9-0.8c-0.2-0.3-0.4-0.8-0.4-1.2h2.3
			c0.1,0.4,0.3,0.7,0.6,0.9c0.3,0.2,0.7,0.3,1.1,0.3c0.7,0,1.1-0.2,1.4-0.6c0.3-0.4,0.4-0.9,0.4-1.5v-1.1h0c-0.3,0.5-0.6,0.8-1.1,1
			c-0.5,0.2-1,0.3-1.5,0.3c-0.6,0-1.2-0.1-1.6-0.3c-0.5-0.2-0.8-0.5-1.1-0.9c-0.3-0.4-0.5-0.8-0.6-1.4c-0.1-0.5-0.2-1.1-0.2-1.7
			c0-0.5,0.1-1.1,0.2-1.6c0.2-0.5,0.4-1,0.7-1.4c0.3-0.4,0.7-0.7,1.1-0.9c0.5-0.2,1-0.3,1.6-0.3c0.6,0,1,0.1,1.5,0.3
			c0.4,0.2,0.8,0.6,1.1,1.1h0v-1.1h2.2v8C407.5,273,407.4,273.4,407.3,273.8z M404.1,271c0.2-0.1,0.5-0.3,0.6-0.5
			c0.2-0.2,0.3-0.5,0.4-0.7c0.1-0.3,0.1-0.6,0.1-0.9c0-0.4,0-0.7-0.1-1c-0.1-0.3-0.2-0.6-0.3-0.8c-0.2-0.2-0.4-0.4-0.6-0.6
			c-0.3-0.1-0.6-0.2-0.9-0.2c-0.3,0-0.6,0.1-0.8,0.2c-0.2,0.1-0.4,0.3-0.6,0.5c-0.2,0.2-0.3,0.5-0.3,0.8c-0.1,0.3-0.1,0.6-0.1,0.9
			c0,0.3,0,0.6,0.1,0.9c0.1,0.3,0.2,0.6,0.3,0.8c0.1,0.2,0.3,0.4,0.6,0.6c0.2,0.2,0.5,0.2,0.9,0.2
			C403.6,271.2,403.9,271.1,404.1,271z"/>
		<path class="st1" d="M408.9,263.3v-1.9h2.3v1.9H408.9z M411.3,264.7v8.5h-2.3v-8.5H411.3z"/>
		<path class="st1" d="M414.9,264.7v1.2h0c0.3-0.5,0.7-0.9,1.1-1.1c0.5-0.2,0.9-0.3,1.4-0.3c0.6,0,1.1,0.1,1.5,0.3
			c0.4,0.2,0.7,0.4,0.9,0.7c0.2,0.3,0.4,0.7,0.5,1.1c0.1,0.4,0.1,0.9,0.1,1.4v5.2h-2.3v-4.8c0-0.7-0.1-1.2-0.3-1.6
			c-0.2-0.3-0.6-0.5-1.2-0.5c-0.6,0-1.1,0.2-1.4,0.6c-0.3,0.4-0.4,1-0.4,1.9v4.5h-2.3v-8.5H414.9z"/>
		<path class="st1" d="M429.9,273.8c-0.1,0.4-0.3,0.8-0.6,1.2c-0.3,0.4-0.8,0.7-1.3,1c-0.6,0.3-1.4,0.4-2.3,0.4
			c-0.4,0-0.8-0.1-1.3-0.2c-0.4-0.1-0.8-0.3-1.2-0.5c-0.4-0.2-0.7-0.5-0.9-0.8c-0.2-0.3-0.4-0.8-0.4-1.2h2.3
			c0.1,0.4,0.3,0.7,0.6,0.9c0.3,0.2,0.7,0.3,1.1,0.3c0.7,0,1.1-0.2,1.4-0.6c0.3-0.4,0.4-0.9,0.4-1.5v-1.1h0c-0.3,0.5-0.6,0.8-1.1,1
			c-0.5,0.2-1,0.3-1.5,0.3c-0.6,0-1.2-0.1-1.6-0.3c-0.5-0.2-0.8-0.5-1.1-0.9c-0.3-0.4-0.5-0.8-0.6-1.4c-0.1-0.5-0.2-1.1-0.2-1.7
			c0-0.5,0.1-1.1,0.2-1.6c0.2-0.5,0.4-1,0.7-1.4c0.3-0.4,0.7-0.7,1.1-0.9c0.5-0.2,1-0.3,1.6-0.3c0.6,0,1,0.1,1.5,0.3
			c0.4,0.2,0.8,0.6,1.1,1.1h0v-1.1h2.2v8C430,273,430,273.4,429.9,273.8z M426.7,271c0.3-0.1,0.5-0.3,0.6-0.5
			c0.2-0.2,0.3-0.5,0.4-0.7c0.1-0.3,0.1-0.6,0.1-0.9c0-0.4,0-0.7-0.1-1c-0.1-0.3-0.2-0.6-0.3-0.8c-0.2-0.2-0.4-0.4-0.6-0.6
			c-0.3-0.1-0.6-0.2-0.9-0.2c-0.3,0-0.6,0.1-0.8,0.2c-0.2,0.1-0.4,0.3-0.6,0.5c-0.2,0.2-0.3,0.5-0.3,0.8c-0.1,0.3-0.1,0.6-0.1,0.9
			c0,0.3,0,0.6,0.1,0.9c0.1,0.3,0.2,0.6,0.3,0.8c0.1,0.2,0.3,0.4,0.6,0.6c0.2,0.2,0.5,0.2,0.9,0.2
			C426.2,271.2,426.5,271.1,426.7,271z"/>
		<path class="st1" d="M440.7,272.9c-0.6,0.3-1.2,0.5-1.9,0.5c-0.5,0-1-0.1-1.4-0.2c-0.4-0.1-0.8-0.4-1.1-0.6
			c-0.3-0.3-0.6-0.6-0.7-1c-0.2-0.4-0.3-0.9-0.3-1.4c0-0.4,0.1-0.8,0.3-1.2c0.2-0.4,0.4-0.7,0.7-1c0.3-0.3,0.6-0.5,0.9-0.8
			c0.3-0.2,0.7-0.4,1-0.6c-0.2-0.2-0.3-0.4-0.5-0.6c-0.2-0.2-0.3-0.4-0.5-0.7c-0.1-0.2-0.3-0.5-0.3-0.7c-0.1-0.3-0.1-0.5-0.1-0.8
			c0-0.4,0.1-0.7,0.2-1c0.1-0.3,0.3-0.5,0.6-0.7c0.2-0.2,0.5-0.4,0.8-0.5c0.3-0.1,0.6-0.2,1-0.2s0.7,0.1,1,0.2
			c0.3,0.1,0.6,0.3,0.8,0.5c0.2,0.2,0.4,0.5,0.6,0.7c0.1,0.3,0.2,0.6,0.2,1c0,0.4-0.1,0.7-0.2,1c-0.1,0.3-0.3,0.6-0.5,0.8
			c-0.2,0.2-0.5,0.5-0.7,0.7c-0.3,0.2-0.6,0.4-0.9,0.6l2.6,3.1c0.1-0.3,0.2-0.6,0.3-0.9c0-0.3,0.1-0.7,0.1-1.1h1
			c0,0.3,0,0.8-0.1,1.3c-0.1,0.5-0.3,1-0.5,1.5l2,2.4h-1.3l-1.2-1.5C441.8,272.2,441.3,272.6,440.7,272.9z M437.9,267.8
			c-0.3,0.2-0.5,0.4-0.8,0.6c-0.2,0.2-0.4,0.5-0.6,0.8c-0.1,0.3-0.2,0.6-0.2,1c0,0.3,0.1,0.7,0.2,0.9c0.1,0.3,0.3,0.5,0.6,0.7
			c0.2,0.2,0.5,0.4,0.8,0.5c0.3,0.1,0.6,0.2,1,0.2c0.6,0,1.1-0.2,1.6-0.5c0.5-0.3,0.9-0.7,1.2-1.2l-2.9-3.6
			C438.4,267.5,438.1,267.6,437.9,267.8z M438.2,262.7c-0.3,0.3-0.5,0.6-0.5,1.1c0,0.2,0,0.4,0.1,0.6c0.1,0.2,0.2,0.4,0.3,0.6
			c0.1,0.2,0.3,0.4,0.4,0.6c0.2,0.2,0.3,0.4,0.4,0.5c0.2-0.1,0.4-0.3,0.6-0.4c0.2-0.2,0.4-0.3,0.6-0.5c0.2-0.2,0.3-0.4,0.4-0.6
			c0.1-0.2,0.2-0.5,0.2-0.8c0-0.5-0.2-0.9-0.5-1.1c-0.3-0.3-0.7-0.4-1.1-0.4S438.5,262.4,438.2,262.7z"/>
		<path class="st1" d="M452,261.4v9.6h5.7v2.2h-8.3v-11.8H452z"/>
		<path class="st1" d="M458.7,265.9c0.2-0.4,0.5-0.7,0.9-0.9c0.4-0.2,0.8-0.4,1.3-0.5c0.5-0.1,0.9-0.1,1.4-0.1c0.4,0,0.9,0,1.3,0.1
			c0.4,0.1,0.8,0.2,1.2,0.4c0.4,0.2,0.7,0.4,0.9,0.7c0.2,0.3,0.3,0.7,0.3,1.2v4.4c0,0.4,0,0.8,0.1,1.1c0,0.4,0.1,0.6,0.2,0.8l-2.4,0
			c0-0.1-0.1-0.3-0.1-0.4c0-0.1,0-0.3-0.1-0.4c-0.4,0.4-0.8,0.7-1.3,0.8c-0.5,0.2-1,0.2-1.5,0.2c-0.4,0-0.8,0-1.1-0.1
			c-0.3-0.1-0.7-0.3-0.9-0.5c-0.3-0.2-0.5-0.5-0.6-0.8c-0.1-0.3-0.2-0.7-0.2-1.1c0-0.5,0.1-0.9,0.3-1.2c0.2-0.3,0.4-0.6,0.7-0.7
			c0.3-0.2,0.6-0.3,0.9-0.4c0.3-0.1,0.7-0.2,1-0.2c0.3-0.1,0.7-0.1,1-0.1c0.3,0,0.6-0.1,0.9-0.1c0.3-0.1,0.5-0.2,0.6-0.3
			c0.2-0.1,0.2-0.3,0.2-0.6c0-0.3,0-0.5-0.1-0.6c-0.1-0.1-0.2-0.3-0.3-0.3c-0.1-0.1-0.3-0.1-0.5-0.2c-0.2,0-0.4,0-0.6,0
			c-0.5,0-0.8,0.1-1.1,0.3c-0.3,0.2-0.4,0.5-0.5,1h-2.3C458.4,266.7,458.5,266.3,458.7,265.9z M463.3,269.2c-0.1,0-0.3,0.1-0.5,0.1
			c-0.2,0-0.3,0.1-0.5,0.1c-0.2,0-0.4,0-0.6,0.1c-0.2,0-0.3,0.1-0.5,0.1c-0.2,0.1-0.3,0.1-0.4,0.2s-0.2,0.2-0.3,0.4
			c-0.1,0.1-0.1,0.3-0.1,0.5c0,0.2,0,0.4,0.1,0.5c0.1,0.1,0.2,0.3,0.3,0.3c0.1,0.1,0.3,0.1,0.5,0.2c0.2,0,0.4,0,0.5,0
			c0.5,0,0.8-0.1,1.1-0.2c0.3-0.2,0.4-0.3,0.6-0.6c0.1-0.2,0.2-0.4,0.2-0.7c0-0.2,0-0.4,0-0.5V269
			C463.6,269.1,463.5,269.2,463.3,269.2z"/>
		<path class="st1" d="M469.7,261.4v4.3h0c0.3-0.4,0.7-0.8,1.2-1c0.5-0.2,1-0.3,1.5-0.3c0.4,0,0.8,0.1,1.3,0.3
			c0.4,0.2,0.8,0.4,1.1,0.8c0.3,0.4,0.6,0.8,0.8,1.4c0.2,0.6,0.3,1.2,0.3,2s-0.1,1.5-0.3,2c-0.2,0.6-0.5,1-0.8,1.4
			c-0.3,0.4-0.7,0.6-1.1,0.8c-0.4,0.2-0.8,0.3-1.3,0.3c-0.6,0-1.2-0.1-1.7-0.3c-0.5-0.2-0.9-0.5-1.1-1h0v1.1h-2.2v-11.8H469.7z
			 M473.5,267.9c-0.1-0.3-0.2-0.6-0.4-0.9c-0.2-0.3-0.4-0.5-0.6-0.6c-0.2-0.1-0.5-0.2-0.9-0.2c-0.3,0-0.6,0.1-0.9,0.2
			c-0.3,0.1-0.5,0.3-0.6,0.6c-0.2,0.3-0.3,0.5-0.4,0.9c-0.1,0.3-0.1,0.7-0.1,1c0,0.4,0,0.7,0.1,1c0.1,0.3,0.2,0.6,0.4,0.9
			c0.2,0.3,0.4,0.5,0.6,0.6c0.3,0.1,0.5,0.2,0.9,0.2c0.3,0,0.6-0.1,0.9-0.2c0.2-0.1,0.4-0.3,0.6-0.6c0.2-0.3,0.3-0.5,0.4-0.9
			c0.1-0.3,0.1-0.7,0.1-1C473.6,268.6,473.6,268.2,473.5,267.9z"/>
		<path class="st1" d="M479.4,271.1c0.3,0.3,0.9,0.5,1.5,0.5c0.5,0,0.9-0.1,1.2-0.4c0.3-0.2,0.5-0.5,0.6-0.7h2
			c-0.3,1-0.8,1.7-1.5,2.2c-0.7,0.4-1.5,0.7-2.5,0.7c-0.7,0-1.3-0.1-1.8-0.3c-0.5-0.2-1-0.5-1.4-0.9s-0.7-0.9-0.9-1.4
			c-0.2-0.5-0.3-1.2-0.3-1.8c0-0.6,0.1-1.2,0.3-1.8c0.2-0.5,0.5-1,0.9-1.4c0.4-0.4,0.8-0.7,1.4-0.9c0.5-0.2,1.1-0.3,1.8-0.3
			c0.7,0,1.3,0.1,1.9,0.4c0.5,0.3,1,0.7,1.3,1.1c0.3,0.5,0.6,1,0.7,1.6c0.2,0.6,0.2,1.2,0.2,1.9h-6.1
			C478.9,270.2,479.1,270.8,479.4,271.1z M482.1,266.7c-0.3-0.3-0.7-0.5-1.3-0.5c-0.4,0-0.7,0.1-0.9,0.2c-0.2,0.1-0.4,0.3-0.6,0.5
			c-0.1,0.2-0.3,0.4-0.3,0.6c-0.1,0.2-0.1,0.4-0.1,0.6h3.8C482.5,267.4,482.3,267,482.1,266.7z"/>
		<path class="st1" d="M488.3,261.4v11.8h-2.3v-11.8H488.3z"/>
		<path class="st1" d="M491.6,271.1c0.1,0.2,0.2,0.3,0.4,0.4c0.2,0.1,0.4,0.2,0.6,0.3c0.2,0.1,0.4,0.1,0.7,0.1c0.2,0,0.3,0,0.5-0.1
			c0.2,0,0.3-0.1,0.5-0.2c0.1-0.1,0.3-0.2,0.4-0.3c0.1-0.1,0.1-0.3,0.1-0.5c0-0.4-0.2-0.6-0.7-0.8c-0.5-0.2-1.1-0.4-1.9-0.5
			c-0.3-0.1-0.7-0.2-1-0.3c-0.3-0.1-0.6-0.2-0.9-0.4c-0.3-0.2-0.5-0.4-0.6-0.6c-0.2-0.3-0.2-0.6-0.2-0.9c0-0.5,0.1-1,0.3-1.4
			c0.2-0.4,0.5-0.6,0.8-0.8c0.4-0.2,0.7-0.3,1.2-0.4c0.4-0.1,0.9-0.1,1.3-0.1c0.5,0,0.9,0,1.3,0.1c0.4,0.1,0.8,0.2,1.2,0.4
			c0.3,0.2,0.6,0.5,0.8,0.8c0.2,0.3,0.4,0.8,0.4,1.3h-2.2c0-0.5-0.2-0.8-0.5-0.9c-0.3-0.2-0.7-0.2-1.1-0.2c-0.1,0-0.3,0-0.4,0
			c-0.2,0-0.3,0.1-0.4,0.1c-0.1,0.1-0.2,0.1-0.3,0.2c-0.1,0.1-0.1,0.2-0.1,0.4c0,0.2,0.1,0.4,0.2,0.5c0.2,0.1,0.4,0.2,0.6,0.3
			c0.2,0.1,0.5,0.2,0.8,0.2c0.3,0.1,0.6,0.1,1,0.2c0.3,0.1,0.7,0.2,1,0.3c0.3,0.1,0.6,0.3,0.9,0.4c0.3,0.2,0.5,0.4,0.6,0.7
			c0.2,0.3,0.2,0.6,0.2,1c0,0.6-0.1,1-0.3,1.4c-0.2,0.4-0.5,0.7-0.9,0.9c-0.4,0.2-0.8,0.4-1.2,0.5c-0.5,0.1-0.9,0.1-1.4,0.1
			c-0.5,0-1,0-1.4-0.1c-0.5-0.1-0.9-0.3-1.3-0.5c-0.4-0.2-0.7-0.5-0.9-0.9c-0.2-0.4-0.4-0.9-0.4-1.4h2.2
			C491.5,270.7,491.5,270.9,491.6,271.1z"/>
	</g>
	<polygon class="st2" points="287.2,157.1 329.7,157.1 329.7,298.2 431.2,298.2 431.2,329.1 287.2,329.1 	"/>
	<g>
		<path class="st1" d="M321.7,196.6h22.1v87.5H397v19.2h-75.4V196.6z"/>
	</g>
	<g>
		<path class="st0" d="M296.7,213.7v-17.5H318v17.5H296.7z M318,225.7v77.5h-21.2v-77.5H318z"/>
	</g>
</g>
<g id="txt">
</g>
</svg>
